<svg width="70" height="70" viewBox="0 0 70 70" fill="none" xmlns="http://www.w3.org/2000/svg">
<path d="M31.8639 45.8817C31.8011 45.8817 23.6899 45.8182 19.0995 45.691C15.6413 45.6272 14.9498 41.809 14.9498 41.6182L11.0513 19.0272C10.9255 18.391 10.3595 17.9455 9.73068 18.0727C9.10189 18.2 8.66187 18.7727 8.78763 19.409L12.6231 42C12.9377 43.9728 14.5725 47.7273 18.6595 47.9818V68.7272C18.6595 69.3637 19.1626 69.9363 19.8541 69.9363C20.5459 69.9363 21.0489 69.4272 21.0489 68.7272V48.109C23.3753 48.1727 26.142 48.1728 28.2799 48.2363V68.791C28.2799 69.4273 28.783 70 29.4745 70C30.1033 70 30.6693 69.491 30.6693 68.791V48.2363C31.4239 48.2363 31.8639 48.2363 31.9269 48.2363C32.5557 48.2363 33.0587 47.7273 33.0587 47.091C32.9957 46.4545 32.4927 45.8817 31.8639 45.8817Z" fill="white"/>
<path d="M26.2678 15.5272C30.4806 15.5272 33.9393 12.0272 33.9393 7.76375C33.9393 3.5 30.4806 0 26.205 0C21.992 0 18.5338 3.5 18.5338 7.76375C18.5338 12.0272 22.055 15.591 26.2678 15.5272ZM23.3126 3.11825C24.8844 1.97275 27.5884 1.97275 29.223 3.11825C29.6003 3.37275 29.5375 3.5 29.1602 3.691C28.2172 4.2 27.2738 4.4545 26.205 4.4545C25.2617 4.4545 24.2557 4.2 23.3753 3.691C22.9981 3.5 22.9981 3.37275 23.3126 3.11825ZM21.1747 5.66375C21.3632 5.21825 21.552 5.1545 21.992 5.409C24.7587 7.06375 27.6511 7.12725 30.4178 5.47275C31.0466 5.091 31.1724 5.28175 31.4239 5.8545C32.1784 7.9545 31.6754 10.309 29.9775 11.8363C28.2172 13.4273 26.205 13.809 24.0671 12.8545C21.9292 11.9 20.8602 10.1182 20.7974 7.76375C20.7974 7.06375 20.9859 6.36375 21.1747 5.66375Z" fill="white"/>
<path d="M60.1585 34.6818H52.4255C52.7405 34.5545 52.9281 34.3638 53.0531 34.0455L58.1484 20.9363C58.3984 20.3638 58.0834 19.7273 57.5183 19.4728C56.9533 19.2183 56.3233 19.5362 56.0733 20.109L51.2304 32.5183H38.5921C37.9621 32.5183 37.522 33.0273 37.522 33.6C37.522 34.0455 37.837 34.491 38.2146 34.6182H36.2019C35.5744 34.6182 35.1344 35.1273 35.1344 35.7C35.1344 36.3363 35.6369 36.7817 36.2019 36.7817H52.9906V68.7272C52.9906 69.3637 53.4931 69.8727 54.1231 69.8727C54.7507 69.8727 55.2557 69.3637 55.2557 68.7272V36.8455H60.1585C60.7886 36.8455 61.2286 36.3362 61.2286 35.7637C61.2911 35.1272 60.7886 34.6818 60.1585 34.6818Z" fill="white"/>
<path d="M47.5827 64.591L43.6224 65.3545L41.5473 45.6273C41.4848 45.1818 41.2323 44.8638 40.7923 44.6728L29.9775 40.9183C30.7951 39.7728 31.2981 38.4363 31.2981 36.909V25.4545L38.3396 31.0545C38.5296 31.1817 38.7796 31.309 39.0321 31.309H46.3901C47.0177 31.309 47.4577 30.8 47.4577 30.2272C47.4577 29.591 46.9552 29.1455 46.3901 29.1455H39.4097L31.2981 22.6545V19.3455C31.2981 18.3273 30.4806 17.5 29.4747 17.5H24.1299C23.9414 17.5 23.6899 17.5 23.5011 17.5C23.4384 17.5 23.4384 17.5 23.3753 17.5C20.4202 17.5 18.0307 19.9182 18.0307 22.909V23.291C18.0307 23.4182 18.0307 23.5455 18.0307 23.6728V36.909C18.0307 37.0363 18.0307 37.1637 18.0307 37.291V43.3363C18.0307 43.909 18.471 44.3545 19.0368 44.3545H19.3511C20.5459 44.3545 21.6147 43.9727 22.4323 43.2727C23.1238 43.5272 23.8784 43.6545 24.6329 43.6545C25.9535 43.6545 27.1481 43.2727 28.1542 42.6362L39.4097 46.5817L41.5473 66.8183C41.6098 67.1363 41.7348 67.391 41.9873 67.5817C42.1748 67.709 42.4274 67.7728 42.6174 67.7728C42.6799 67.7728 42.7424 67.7728 42.8049 67.7728L47.8977 66.8183C48.4627 66.691 48.9053 66.1182 48.7778 65.5455C48.7153 64.909 48.1502 64.5273 47.5827 64.591ZM29.286 23.0363C29.286 23.1638 29.286 23.3545 29.286 23.4817V35.509H24.3814V19.6H29.286V23.0363ZM22.3693 39.2637C22.3693 40.7272 21.3632 41.9363 20.0429 42.2545V22.9728C20.0429 21.4455 21.0489 20.1727 22.3693 19.7272V39.2637ZM23.8784 41.491C24.1929 40.791 24.3814 40.0272 24.3814 39.2637V37.8H29.1602C28.7829 39.9638 26.8966 41.6183 24.6329 41.6183C24.3814 41.5545 24.1299 41.5545 23.8784 41.491Z" fill="white"/>
</svg>
