<svg width="70" height="70" viewBox="0 0 70 70" fill="none" xmlns="http://www.w3.org/2000/svg">
<path d="M62.4609 34.7552L59.2961 25.5112C59.1136 23.7704 58.0187 22.57 56.3163 22.1499C55.9513 22.0899 55.6463 22.0896 55.2813 22.0896C51.6916 22.0896 48.1643 22.0896 44.5746 22.0896C42.2022 22.0896 40.6197 23.4704 40.4373 25.6914V25.2112C40.4373 25.2712 40.4373 25.3312 40.4373 25.3312L40.3148 25.2112L39.3424 22.4498V9.84446C39.3424 9.24404 38.8549 8.76385 38.2475 8.76385C37.6375 8.76385 37.1525 9.24404 37.1525 9.84446V22.63C37.1525 22.75 37.1525 22.87 37.2125 22.9903L40.3148 31.9941C40.3148 35.4756 40.3148 39.0172 40.3148 42.4987C40.3148 42.9189 40.3148 43.2791 40.3148 43.6993C40.3773 44.4797 40.7423 44.8396 41.5322 44.8396C42.2022 44.8396 42.8096 44.6597 43.4171 44.4197C44.1471 44.1195 44.452 44.2994 44.452 45.1398C44.452 45.9202 44.452 46.6407 44.452 47.4208C44.452 50.1822 44.452 52.9433 44.452 55.7045C44.452 59.186 44.452 62.6676 44.452 66.1491C44.452 66.6293 44.3295 66.8695 43.8445 67.0495C42.9921 67.2897 42.1396 67.5899 41.2897 67.8899C40.4373 68.1901 40.1323 68.6703 40.3773 69.3304C40.6198 69.9309 41.1672 70.1708 41.9572 69.8709C43.1746 69.4507 44.392 69.0905 45.6094 68.6703C46.4594 68.3701 46.6419 68.1301 46.6419 67.2297C46.6419 63.8082 46.6419 60.3866 46.6419 56.9651C46.6419 53.6637 46.6419 50.3622 46.6419 47.0608C46.6419 46.4604 46.7044 46.2805 47.3718 46.5204C48.9542 47.1208 50.5966 47.1208 52.239 46.5204C52.909 46.2805 52.969 46.4604 52.909 47.0608C52.909 53.6637 52.909 60.2666 52.909 66.8695C52.909 68.2501 52.969 68.3701 54.3089 68.7903C55.4038 69.1505 56.5587 69.5107 57.7137 69.8709C58.5061 70.1108 59.0536 69.8709 59.2361 69.2704C59.4186 68.6703 59.1136 68.1901 58.3836 67.9499C57.4712 67.6499 56.5588 67.2897 55.5863 67.0495C55.2214 66.9295 55.0989 66.7495 55.0989 66.3893C55.0989 59.3662 55.0989 52.2832 55.0989 45.2598C55.0989 44.4197 55.4038 44.2395 56.1938 44.5397C56.8012 44.7796 57.4112 44.9599 58.0786 44.9599C58.8086 44.9599 59.1761 44.5997 59.2361 43.8793C59.2361 43.7593 59.2361 43.6393 59.2361 43.5191C59.2361 39.7975 59.2361 36.136 59.2361 32.4143L60.2085 35.3556V47.9612C60.2085 48.5614 60.696 49.0416 61.3034 49.0416C61.9134 49.0416 62.3983 48.5614 62.3983 47.9612V35.1154C62.5208 34.9954 62.4609 34.8754 62.4609 34.7552ZM44.5746 39.7376C44.5746 40.8179 44.0271 41.6583 43.1146 42.2587C42.9921 42.3787 42.8096 42.5587 42.6271 42.4387C42.4446 42.3187 42.5047 42.0785 42.5047 41.9585C42.5047 39.2574 42.5047 36.6162 42.5047 33.9151C42.5047 31.2737 42.5047 28.6325 42.5047 25.9914C42.5047 24.971 43.0521 24.3108 43.9646 24.1306C44.3295 24.0706 44.5746 24.1306 44.5746 24.6108C44.5746 29.6531 44.5746 34.6952 44.5746 39.7376ZM46.7044 31.4539C46.7044 29.4729 46.7044 27.4322 46.7044 25.4512C46.7044 24.1306 46.7044 24.1906 47.9818 24.1306C48.6492 24.1306 48.7118 24.3708 48.7118 24.911C48.7118 28.2123 48.7118 31.5739 48.7118 34.8755C48.7118 35.0554 48.7118 35.2956 48.7118 35.4756C48.7718 36.196 49.1967 36.6162 49.8067 36.5562C50.4141 36.5562 50.7791 36.136 50.8391 35.4756C50.8391 35.2956 50.8391 35.0554 50.8391 34.8755C50.8391 31.8141 50.8391 28.6927 50.8391 25.6314C50.8391 24.0706 50.8391 24.1306 52.3615 24.1306C52.7865 24.1306 52.849 24.3108 52.849 24.6708C52.849 29.1729 52.849 33.6749 52.849 38.1168C52.849 38.537 52.7265 38.6569 52.3015 38.6569C50.5966 38.6569 48.8943 38.6569 47.1894 38.6569C46.7044 38.6569 46.5819 38.537 46.5819 38.0568C46.7044 35.8958 46.7044 33.6748 46.7044 31.4539ZM53.6389 43.2191C51.6315 45.3801 47.9818 45.3801 45.9745 43.2191C45.6695 42.9189 45.6694 42.6789 45.9119 42.3187C46.1569 42.0185 46.3394 41.6583 46.3994 41.2381C46.5219 40.6979 46.7644 40.6379 47.2518 40.6379C48.1018 40.6379 48.9543 40.6379 49.7442 40.6379C50.5367 40.6379 51.2666 40.6979 52.0565 40.6379C52.7865 40.5779 53.214 40.7579 53.334 41.5383C53.3965 41.7785 53.5165 42.0785 53.699 42.2587C54.0039 42.6789 53.9439 42.9189 53.6389 43.2191ZM57.0462 42.4387C56.8012 42.5587 56.6188 42.3187 56.4363 42.1985C55.5238 41.5383 55.0989 40.6979 55.0989 39.6176C55.0989 37.4566 55.0989 35.2356 55.0989 33.0747C55.0989 30.3133 55.0989 27.4922 55.0989 24.731C55.0989 24.1906 55.2814 24.0706 55.7688 24.1906C56.1338 24.3108 56.4363 24.4908 56.6812 24.731L57.1662 26.0516C57.1662 28.6325 57.1662 31.2739 57.1662 33.8548C57.1662 36.5562 57.1662 39.1974 57.1662 41.8985C57.1662 42.0785 57.2887 42.3787 57.0462 42.4387Z" fill="white"/>
<path d="M42.3847 12.7256C42.3847 16.7473 45.7294 20.1089 49.8666 20.0489C53.9439 20.0489 57.2887 16.7473 57.2887 12.7256C57.2887 8.70386 53.8814 5.3423 49.8067 5.40229C45.7919 5.40229 42.4447 8.70386 42.3847 12.7256ZM54.7939 10.9248C55.5238 12.9058 55.0389 15.1268 53.3965 16.5673C51.6916 18.0679 49.7442 18.4281 47.6768 17.5277C45.6095 16.6273 44.5745 14.9465 44.512 12.7256C44.512 12.0052 44.6945 11.405 44.877 10.7448C45.0595 10.3246 45.1819 10.2644 45.6094 10.5046C48.2842 12.0654 51.0841 12.1254 53.7614 10.5646C54.4914 10.2044 54.6114 10.3846 54.7939 10.9248ZM52.6665 8.88384C51.8141 9.36402 50.9016 9.60424 49.8067 9.60424C48.8942 9.60424 47.9193 9.36402 47.0694 8.88384C46.7644 8.70386 46.7044 8.58387 47.0069 8.34365C48.5293 7.26329 51.1441 7.26329 52.7265 8.34365C53.0315 8.58387 52.969 8.70386 52.6665 8.88384Z" fill="white"/>
<path d="M34.7802 29.7131H11.2366C10.3842 29.7131 9.65425 28.9927 9.65425 28.1523V3.66153C9.65425 2.82114 10.3842 2.10098 11.2366 2.10098H49.8067C50.4142 2.10098 50.9016 1.62079 50.9016 1.02036C50.9016 0.420193 50.4142 0 49.8067 0H11.2366C9.16677 0 7.52441 1.62079 7.52441 3.66153V28.1523C7.52441 30.1333 9.16677 31.8141 11.2366 31.8141H34.7802C35.3877 31.8141 35.8751 31.3339 35.8751 30.7335C35.8751 30.1333 35.3877 29.7131 34.7802 29.7131Z" fill="white"/>
<path d="M35.5101 8.38869C35.5101 7.78851 35.0226 7.30832 34.4151 7.30832H15.2514C14.6415 7.30832 14.1565 7.78851 14.1565 8.38869C14.1565 8.98886 14.6415 9.4693 15.2514 9.4693H34.4151C35.0226 9.4693 35.5101 8.98886 35.5101 8.38869Z" fill="white"/>
<path d="M31.4953 14.1362C31.4953 13.536 31.0079 13.0559 30.3979 13.0559H15.1889C14.5815 13.0559 14.094 13.536 14.094 14.1362C14.094 14.7364 14.5815 15.2168 15.1889 15.2168H30.3979C31.0079 15.1566 31.4953 14.6764 31.4953 14.1362Z" fill="white"/>
<path d="M15.2514 18.8034C14.6415 18.8034 14.1565 19.2836 14.1565 19.8838C14.1565 20.4839 14.6415 20.9644 15.2514 20.9644H26.6881C27.2956 20.9644 27.7831 20.4839 27.7831 19.8838C27.7831 19.2836 27.2956 18.8034 26.6881 18.8034H15.2514Z" fill="white"/>
</svg>
