<svg width="50" height="70" viewBox="0 0 50 70" fill="none" xmlns="http://www.w3.org/2000/svg">
<path d="M23.7028 22.6168C23.7028 19.8848 21.9903 18.1964 19.3282 18.1964C15.5889 18.1964 11.913 18.1964 8.17339 18.1964C7.79336 18.1964 7.41305 18.1964 7.09613 18.2612C5.32141 18.717 4.18052 20.0169 3.99037 21.8994L0.694727 31.9726C0.631344 32.1047 0.631348 32.1694 0.631348 32.2989V46.1398C0.631348 46.7897 1.1384 47.3103 1.77223 47.3103C2.40606 47.3103 2.91314 46.7897 2.91314 46.1398V32.4931L3.927 29.308C3.927 33.3372 3.927 37.3018 3.927 41.331C3.927 41.4605 3.927 41.5927 3.927 41.7221C3.99038 42.5015 4.43406 42.8926 5.19466 42.8926C5.89187 42.8926 6.5257 42.7604 7.15953 42.4368C7.98324 42.1105 8.30015 42.3074 8.30015 43.2162C8.30015 50.819 8.30015 58.4892 8.30015 66.0919C8.30015 66.483 8.17339 66.7419 7.79336 66.8066C6.84262 67.1329 5.82849 67.4566 4.87774 67.7829C4.11715 68.0418 3.80023 68.5623 3.99037 69.2123C4.18052 69.927 4.75097 70.1859 5.57495 69.8623C6.77923 69.4712 7.91986 69.0802 9.12414 68.6918C10.5186 68.236 10.5819 68.1066 10.5819 66.6125C10.5819 59.4628 10.5819 52.3158 10.5819 45.1661C10.5819 44.5162 10.6453 44.322 11.2791 44.5809C12.9268 45.2309 14.6382 45.2309 16.3495 44.5809C17.0467 44.322 17.1101 44.5162 17.1101 45.1661C17.1101 48.7396 17.1101 52.3158 17.1101 55.8893C17.1101 59.5922 17.1101 63.2979 17.1101 67.0008C17.1101 67.9771 17.3003 68.3007 18.1874 68.5623C19.455 69.0154 20.7227 69.4065 21.9903 69.8623C22.8154 70.1212 23.3845 69.927 23.638 69.277C23.8915 68.5623 23.576 68.0418 22.6886 67.7155C21.8002 67.3919 20.9128 67.0655 20.0255 66.8066C19.455 66.6772 19.3916 66.3508 19.3916 65.833C19.3916 62.0627 19.3916 58.2923 19.3916 54.5246C19.3916 51.5337 19.3916 48.5454 19.3916 45.5572C19.3916 44.7104 19.3916 43.9309 19.3916 43.0868C19.3916 42.1779 19.7086 41.981 20.4691 42.3073C21.103 42.5663 21.7368 42.7604 22.4351 42.7604C23.2577 42.7604 23.7028 42.3721 23.7028 41.5279C23.7028 41.0721 23.7028 40.6811 23.7028 40.228C23.7028 34.443 23.7028 28.5285 23.7028 22.6168ZM8.30015 30.0901C8.30015 32.4283 8.30015 34.8341 8.30015 37.1723C8.30015 38.3428 7.85674 39.3164 6.90599 39.9664C6.71585 40.0958 6.5257 40.3574 6.27216 40.228C6.08201 40.0958 6.20878 39.8369 6.20878 39.578C6.20878 36.6518 6.20878 33.793 6.20878 30.8695C6.20878 28.0754 6.20878 25.214 6.20878 22.4199L6.71584 20.9905C6.96937 20.7316 7.28629 20.5347 7.66658 20.4053C8.17338 20.2758 8.36353 20.4053 8.36353 20.9905C8.30014 24.1109 8.30015 27.0991 8.30015 30.0901ZM10.5819 20.9905C10.5819 20.6022 10.6453 20.4053 11.089 20.4053C12.6736 20.4053 12.6736 20.4053 12.6736 22.0963C12.6736 25.4108 12.6736 28.7902 12.6736 32.1047C12.6736 32.2989 12.6736 32.5578 12.6736 32.7547C12.737 33.4694 13.1804 33.9225 13.7508 33.9225C14.3846 33.9225 14.8283 33.4694 14.8917 32.7547C14.8917 32.5578 14.8917 32.2989 14.8917 32.1047C14.8917 28.5286 14.8917 24.8903 14.8917 21.3169C14.8917 20.7316 14.9551 20.4053 15.6523 20.47C16.9833 20.5347 16.9833 20.47 16.9833 21.8994C16.9833 24.0462 16.9833 26.255 16.9833 28.3991C16.9833 30.8048 16.9833 33.2078 16.9833 35.6135C16.9833 36.134 16.8566 36.2634 16.3495 36.2634C14.5748 36.2634 12.8001 36.2634 11.0256 36.2634C10.5819 36.2634 10.4552 36.134 10.4552 35.6782C10.5819 30.7401 10.5819 25.8639 10.5819 20.9905ZM17.8071 41.1369C15.7157 43.4752 11.913 43.4752 9.82135 41.1369C9.50443 40.8133 9.44103 40.5516 9.75795 40.1633C9.9481 39.9017 10.0749 39.6428 10.1383 39.3812C10.265 38.537 10.7087 38.3428 11.4693 38.4075C12.2933 38.4723 13.0536 38.4075 13.8776 38.4075C14.7649 38.4075 15.6523 38.4075 16.4763 38.4075C16.92 38.4075 17.2369 38.4723 17.3636 39.0575C17.427 39.4486 17.6172 39.8369 17.8704 40.228C18.124 40.5516 18.124 40.8133 17.8071 41.1369ZM21.3565 40.2927C21.1663 40.4222 20.9762 40.228 20.8494 40.0959C19.8987 39.4486 19.3282 38.537 19.3282 37.3665C19.3282 31.9078 19.3282 26.4492 19.3282 20.9905C19.3282 20.47 19.5184 20.4053 19.9621 20.47C20.9128 20.6669 21.4833 21.3816 21.4833 22.4846C21.4833 25.3461 21.4833 28.2049 21.4833 31.0637C21.4833 33.9872 21.4833 36.8487 21.4833 39.7722C21.4199 39.9664 21.5466 40.1633 21.3565 40.2927Z" fill="white"/>
<path d="M49.1153 31.9078L45.315 20.9905C45.2503 20.8611 45.2503 20.6669 45.1882 20.5347L45.0615 20.2111C44.9967 20.0169 44.87 19.82 44.6812 19.6906C43.9206 18.717 42.7797 18.1964 41.3853 18.1964C37.6443 18.1964 33.8413 18.1964 30.1031 18.1964C27.5678 18.1964 25.8551 19.8848 25.8551 22.4846C25.8551 24.6314 25.8551 26.7108 25.8551 28.8549C25.8551 30.1548 26.2354 31.39 27.0607 32.3636C27.3142 32.6873 27.3142 32.8841 27.0607 33.1431C26.3622 33.9872 25.9198 35.0282 25.9198 36.134C25.8551 39.4486 25.8551 42.8279 25.9198 46.1398C25.9198 46.9219 26.3621 47.3103 27.1875 47.3103C28.0101 47.3103 28.8975 47.3103 29.7228 47.3103C30.1651 47.3103 30.2919 47.4397 30.2919 47.8955C30.2919 53.9394 30.2919 59.9833 30.2919 66.0919C30.2919 66.483 30.1651 66.6772 29.7848 66.8066C28.8354 67.1329 27.8213 67.4566 26.8692 67.7829C26.1086 68.0418 25.793 68.5623 25.9818 69.2123C26.1733 69.927 26.7424 70.1212 27.5678 69.8623C28.7707 69.4713 29.9763 69.0154 31.1792 68.6271C32.3849 68.236 32.5116 68.0419 32.5116 66.6772C32.5116 60.4391 32.5116 54.1336 32.5116 47.8955C32.5116 47.375 32.6384 47.1808 33.2075 47.1808C34.9202 47.2455 36.6302 47.2455 38.3429 47.1808C38.9767 47.1808 39.1035 47.375 39.1035 47.9602C39.1035 51.0806 39.1035 54.263 39.1035 57.3834C39.1035 60.5685 39.1035 63.6862 39.1035 66.8714C39.1035 67.8477 39.2923 68.1713 40.1796 68.4976C41.4473 68.9507 42.7797 69.4065 44.0473 69.7976C44.87 70.0565 45.4418 69.7976 45.6306 69.1476C45.8221 68.4976 45.5038 67.9771 44.7432 67.7155C43.7938 67.3919 42.8417 67.0008 41.8276 66.7419C41.3853 66.6124 41.3205 66.4182 41.3205 66.0272C41.3205 64.4036 41.3205 62.7126 41.3205 61.0891C41.3205 56.7334 41.3205 52.3806 41.3205 48.025C41.3205 47.4397 41.512 47.2455 42.0811 47.3103C42.7797 47.375 43.4755 47.3103 44.1741 47.3103C45.315 47.3103 45.6953 46.9219 45.6953 45.7514C45.6953 42.7605 45.6953 39.7075 45.6953 36.7165C45.6953 35.3519 45.377 34.1194 44.4897 33.1431C44.2361 32.8194 44.3009 32.6225 44.4897 32.3636C45.1235 31.5842 45.5685 30.6079 45.6306 29.5696C45.6306 29.2432 45.6306 28.9196 45.6953 28.5285L47.0897 32.4931V46.1398C47.0897 46.7897 47.5968 47.3103 48.2306 47.3103C48.8645 47.3103 49.3688 46.7897 49.3688 46.1398V32.2989C49.18 32.1694 49.18 32.04 49.1153 31.9078ZM35.1737 20.47C36.8217 20.4053 36.8217 20.4053 36.8217 22.0316C36.8217 22.4846 36.8217 23.0052 36.8217 23.4609C36.8217 24.3051 36.8217 25.0845 36.8217 25.9287C36.8217 26.7108 36.3767 27.1639 35.8076 27.2286C35.1737 27.2286 34.7287 26.7108 34.7287 25.9961C34.7287 24.3051 34.7287 22.6815 34.7287 20.9905C34.6667 20.5347 34.7934 20.47 35.1737 20.47ZM35.4273 29.4401C35.4893 29.4401 35.554 29.4401 35.554 29.4401C35.9343 29.4401 36.6302 29.308 36.6949 29.4401C36.8837 30.0901 36.8217 30.8048 36.7569 31.5195C36.7569 31.7137 36.5681 31.7137 36.4414 31.7137C36.2499 31.7137 36.0611 31.7137 35.8696 31.7137C34.6667 31.7137 34.6667 31.7137 34.6667 30.5432C34.6667 30.4137 34.6667 30.2843 34.6667 30.1548C34.5399 29.5048 34.7287 29.1785 35.4273 29.4401ZM36.7569 39.5133C36.7569 40.228 36.3146 40.6811 35.6808 40.6811C35.109 40.6811 34.6667 40.228 34.6019 39.5133C34.6019 37.8223 34.6019 36.134 34.6019 34.443C34.6019 34.1193 34.7287 33.9872 35.047 33.9872C36.757 33.793 36.7569 33.793 36.7569 35.5488C36.7569 36.0666 36.7569 36.5224 36.7569 37.0429C36.7569 37.8223 36.7569 38.6665 36.7569 39.5133ZM28.1369 22.0963C28.1369 21.1847 28.8975 20.47 29.9116 20.47C30.5454 20.4053 31.244 20.47 31.8778 20.47C32.3849 20.47 32.4469 20.6669 32.4469 21.0553C32.4469 22.7463 32.4469 24.4345 32.4469 26.1255C32.4469 27.7491 32.3849 29.308 32.4469 30.9342C32.4469 31.5842 32.2581 31.7784 31.6863 31.7137C31.306 31.6489 30.9257 31.7137 30.5454 31.7137C29.2157 31.7137 28.2636 30.9342 28.2016 29.5696C28.0748 27.0344 28.0748 24.564 28.1369 22.0963ZM42.7149 45.1661C40.3711 45.1661 38.0246 45.1661 35.7428 45.1661C33.461 45.1661 31.1172 45.1661 28.8354 45.1661C28.2636 45.1661 28.1369 44.9719 28.1369 44.3867C28.1369 41.8516 28.1369 39.3164 28.1369 36.784C28.1369 36.2635 28.2016 35.6782 28.4551 35.1577C28.8975 34.3135 29.4045 33.7283 30.4186 33.8578C31.0525 33.9225 31.8778 33.5989 32.3201 33.9872C32.7004 34.3783 32.4469 35.2871 32.4469 35.9371C32.4469 37.0429 32.4469 38.2134 32.4469 39.3164C32.5116 41.3958 33.8413 42.8279 35.7428 42.8926C37.6443 42.8926 39.0387 41.4605 39.1035 39.3164C39.1035 37.6929 39.1035 36.134 39.1035 34.5077C39.1035 33.9872 39.2923 33.793 39.7373 33.8578C40.1176 33.9225 40.5599 33.8578 41.005 33.8578C42.3994 33.8578 43.3488 34.7019 43.4135 36.134C43.4755 38.9928 43.4135 41.7868 43.4756 44.6456C43.3488 45.2309 43.0332 45.1661 42.7149 45.1661ZM43.3488 22.3552C43.3488 24.6314 43.3488 26.905 43.3488 29.1785C43.3488 29.7638 43.16 30.2843 42.9065 30.74C42.5262 31.39 42.0191 31.8431 41.1938 31.7137C40.4979 31.6489 39.6726 31.9726 39.2302 31.5842C38.7852 31.1931 39.1035 30.2843 39.1035 29.5696C39.1035 28.3991 39.1035 27.2286 39.1035 26.0608C39.1035 24.4345 39.1035 22.811 39.1035 21.1847C39.1035 20.6021 39.2923 20.4053 39.8641 20.47C40.4332 20.5347 41.005 20.47 41.6388 20.47C42.3347 20.5347 42.8417 20.7963 43.16 21.3169L43.4135 22.0963C43.2867 22.161 43.3488 22.2905 43.3488 22.3552Z" fill="white"/>
<path d="M13.8142 15.9229C9.56782 15.9229 6.08201 12.3467 6.08201 7.99382C6.08201 3.63821 9.6312 -8.03013e-06 13.8776 0.0647192C18.124 0.0647192 21.61 3.63821 21.61 7.99382C21.61 12.3467 18.124 15.9876 13.8142 15.9229ZM19.3282 7.99382C19.3282 7.21439 19.1381 6.56443 18.9479 5.84973C18.7578 5.39394 18.631 5.32921 18.1874 5.58812C15.3988 7.27912 12.4834 7.34381 9.69457 5.65282C9.06074 5.26445 8.93398 5.45865 8.68044 6.04389C7.92012 8.18798 8.42692 10.5937 10.1383 12.1525C11.913 13.7761 13.941 14.1672 16.096 13.1936C18.1874 12.2173 19.2649 10.3968 19.3282 7.99382ZM13.8776 4.6145C14.8283 4.6145 15.8424 4.35289 16.7298 3.83507C17.1101 3.63819 17.1735 3.50875 16.7932 3.24984C15.2086 2.07936 12.4834 2.07936 10.8355 3.24984C10.4552 3.50875 10.5186 3.63819 10.8989 3.83507C11.8496 4.28816 12.8003 4.6145 13.8776 4.6145Z" fill="white"/>
<path d="M35.7428 15.9876C31.4328 15.9876 27.9481 12.4115 27.9481 7.99383C27.9481 3.5735 31.4328 0 35.7428 0C40.0529 0 43.5403 3.5735 43.5403 7.99383C43.5403 12.4115 40.0529 15.9876 35.7428 15.9876ZM35.7428 2.27355C32.6384 2.27355 30.1651 4.87344 30.1651 7.99383C30.1651 11.179 32.7004 13.7114 35.7428 13.7114C38.7852 13.7114 41.3205 11.1115 41.3205 7.99383C41.3205 4.87344 38.7852 2.27355 35.7428 2.27355Z" fill="white"/>
<path d="M41.7655 5.78501C41.5741 5.78501 37.3908 6.10864 36.8217 2.27355V2.20882C36.8217 2.14409 36.8217 2.07938 36.7569 1.94993L35.6808 2.07935L34.6019 1.94993C34.6019 2.01466 34.6019 2.07936 34.5399 2.20882V2.27355C33.9681 5.97919 30.0383 5.78501 29.596 5.78501L29.5313 6.88806L29.4693 7.99383C29.6581 7.99383 29.8495 7.99383 30.0383 7.99383C31.751 7.99383 34.2216 7.40857 35.6808 5.32921C37.1372 7.34384 39.6105 7.99383 41.3205 7.99383C41.512 7.99383 41.7008 7.99383 41.8923 7.99383L41.7655 5.78501Z" fill="white"/>
</svg>
