<svg width="74" height="70" viewBox="0 0 74 70" fill="none" xmlns="http://www.w3.org/2000/svg">
<path d="M61.5839 58.9776C61.3736 58.9076 61.0964 58.9076 60.8861 58.9076H32.969C31.7168 58.9076 31.0891 59.328 31.0221 60.242C31.0221 60.5923 31.0891 60.9427 31.2994 61.1529C31.5766 61.4332 32.0641 61.5733 32.8989 61.5733C36.9358 61.5733 36.8087 61.5733 40.8457 61.5733C48.0116 61.5733 53.5131 61.5733 60.679 61.5733C61.0263 61.5733 61.3036 61.5733 61.5839 61.5032C62.2084 61.3631 62.5558 60.9427 62.5558 60.242C62.5558 59.6083 62.2084 59.1178 61.5839 58.9776Z" fill="white"/>
<path d="M58.7939 47.6019C59.2113 47.672 59.6287 47.672 60.0461 47.672C60.4635 47.672 60.881 47.672 61.2984 47.6019C62.0631 47.5319 62.4135 47.0414 62.4135 46.1975C62.3434 45.4968 61.926 45.0764 61.2283 45.0063C60.951 45.0063 60.6738 45.0063 60.3935 45.0063C60.2564 45.0063 60.1863 45.0063 60.0461 45.0063H59.906C59.839 45.0063 59.7689 45.0063 59.6989 45.0063C59.4216 45.0063 59.1413 45.0063 58.864 45.0063C58.1694 45.0764 57.752 45.5669 57.752 46.2676C57.6819 46.9713 58.0992 47.4618 58.7939 47.6019Z" fill="white"/>
<path d="M58.9341 27.0318C59.2814 27.0318 59.6988 27.0318 60.0461 27.0318C60.3934 27.0318 60.8108 27.0318 61.1581 27.0318C61.9259 26.9617 62.4134 26.4682 62.4134 25.6974C62.4134 24.9236 61.926 24.4331 61.0912 24.4331C60.881 24.4331 60.6037 24.4331 60.3935 24.4331H59.7688C59.4885 24.4331 59.2813 24.4331 59.0041 24.4331C58.2363 24.5032 57.819 24.9236 57.7519 25.6974C57.6819 26.3981 58.1694 26.9617 58.9341 27.0318Z" fill="white"/>
<path d="M58.9341 33.9109C59.0712 33.9109 59.2113 33.9109 59.3515 33.9109C59.4886 33.9109 59.5587 33.9109 59.6988 33.9109H60.3935C60.6738 33.9109 60.8809 33.9109 61.1581 33.9109C61.9259 33.9109 62.3434 33.4204 62.4134 32.6466C62.4134 32.2962 62.3433 31.9459 62.1331 31.7357C61.9259 31.4554 61.5756 31.3152 61.2282 31.3152C60.5336 31.3152 59.7688 31.3152 59.0041 31.3152C58.5867 31.3152 58.3065 31.4554 58.0292 31.7357C57.819 31.9459 57.6819 32.2962 57.7519 32.6466C57.7519 33.4204 58.1694 33.8408 58.9341 33.9109Z" fill="white"/>
<path d="M58.864 54.484C59.0041 54.484 59.1413 54.484 59.3515 54.484C59.4886 54.484 59.5587 54.484 59.6989 54.484C59.839 54.484 59.9761 54.484 60.0461 54.484H60.3935C60.6738 54.484 60.8809 54.484 61.1581 54.484C61.9259 54.484 62.3434 53.9905 62.4104 53.2197C62.4104 52.4459 61.926 51.9554 61.2283 51.9554C60.4635 51.9554 59.7689 51.9554 58.9341 51.9554C58.1694 51.9554 57.7519 52.4459 57.6819 53.2197C57.6819 53.9204 58.1693 54.414 58.864 54.484Z" fill="white"/>
<path d="M58.9341 40.7229C59.2114 40.7229 59.4886 40.7229 59.6989 40.7229H60.0461C60.1863 40.7229 60.3234 40.7229 60.3935 40.7229C60.5336 40.7229 60.6037 40.7229 60.7408 40.7229C60.8809 40.7229 61.0211 40.7229 61.2283 40.7229C61.926 40.6529 62.4104 40.2294 62.4104 39.4586C62.4104 38.6848 61.993 38.1243 61.2283 38.1243C60.4635 38.0542 59.6988 38.0542 58.864 38.1243C58.0993 38.1243 57.6819 38.6147 57.6819 39.4586C57.7519 40.1593 58.1694 40.6529 58.9341 40.7229Z" fill="white"/>
<path d="M48.1487 33.6306C48.1487 24.9937 41.4702 18.2548 32.9821 18.2548C24.564 18.2548 17.6754 25.1369 17.6754 33.5605C17.6754 42.2675 24.3568 49.0764 32.842 49.0764C32.842 49.0764 32.8419 49.0764 32.912 49.0764C36.9489 49.0764 40.7756 47.4618 43.6974 44.5828C46.5491 41.6338 48.1487 37.7739 48.1487 33.6306ZM41.9577 42.4777C39.5233 45.0063 36.3213 46.4077 32.842 46.4077C29.3656 46.4077 26.0934 45.0063 23.6591 42.4076C23.3118 42.0573 23.3118 41.844 23.6591 41.4936C25.9563 38.4745 29.4356 36.9299 33.8168 36.9299C36.7386 37 39.7305 38.6147 41.9577 41.4236C42.305 41.9171 42.305 42.0572 41.9577 42.4777ZM28.6679 30.0509C28.6679 27.6624 30.5477 25.7675 32.912 25.6974C35.2092 25.6974 37.1561 27.6624 37.1561 29.9809C37.1561 31.102 36.7386 32.1561 35.9038 33C35.069 33.8408 34.0271 34.2612 32.912 34.3343C31.7999 34.3343 30.7549 33.9108 29.9201 33.07C29.1554 32.2261 28.6679 31.172 28.6679 30.0509ZM37.5735 35.2452C38.6185 34.1211 39.3132 32.9299 39.5904 31.5955C40.0109 29.8407 39.6605 28.0128 38.6185 26.4682C37.5735 24.8536 36.0441 23.8025 34.2343 23.4491C32.4246 23.0988 30.5478 23.4491 29.0183 24.5032C27.4858 25.5573 26.4438 27.1719 26.1635 28.9267C25.7461 31.2451 26.3737 33.3503 28.0433 35.1051C28.1134 35.1752 28.1134 35.1752 28.1805 35.2452C28.1805 35.2452 28.1804 35.2452 28.2505 35.2452C28.2505 35.2452 28.1805 35.2452 28.1134 35.3153C24.7041 36.8599 24.564 36.93 21.7122 39.8089C19.5551 35.3153 19.6252 31.1721 21.9194 27.172C24.5639 22.6083 29.8531 20.1497 34.8619 21.1337C40.4283 22.2579 44.392 26.3281 45.2969 31.7357C45.7143 34.3344 45.297 37 44.0448 39.5987L43.9747 39.7389C43.9747 39.809 43.9046 39.879 43.9046 39.879C43.9046 39.879 43.8345 39.809 43.7675 39.7389C42.235 37.6337 40.1479 36.1592 37.5735 35.2452Z" fill="white"/>
<path d="M73.2659 15.7262L58.5167 0.77381C58.3065 0.350344 57.819 0 57.3346 0C57.3346 0 57.3346 0 57.2645 0C57.2645 0 57.2645 0 57.1944 0H25.8862C23.1046 0 20.8775 2.24528 20.8775 5.05417V12.637C20.8775 12.7771 20.8775 12.8472 20.8775 12.9904V15.2357C20.8775 15.3058 20.8775 15.3057 20.8775 15.3758C20.8775 15.6561 20.8775 16.0095 20.8775 16.2898C20.8775 16.9204 20.6672 17.3408 20.1798 17.7643C14.0589 22.8885 11.6946 29.5574 13.0839 37.7038C13.6415 41.0032 15.1008 44.0223 17.4681 46.7611C17.6753 47.0414 17.6753 47.1114 17.4681 47.2516C17.1909 47.4618 16.9807 47.7421 16.7035 47.9523C16.5633 48.0955 16.4231 48.2356 16.286 48.3757C16.1458 48.5159 16.0057 48.656 15.9357 48.7962C15.7285 49.0765 15.4512 49.4268 15.241 49.4268C15.0338 49.4268 14.8236 49.1465 14.5464 48.8662C14.4062 48.7261 14.2661 48.5159 14.129 48.3757C14.129 48.3757 14.129 48.3758 14.0589 48.3057L13.9888 48.2356C13.154 47.3917 12.5294 47.3917 11.6946 48.2356C10.7897 49.1465 9.88486 50.0605 8.9099 51.0445L8.49252 51.4649C7.86794 52.0956 7.17022 52.7993 6.54564 53.4299C4.94306 55.0446 3.34357 56.6593 1.74404 58.2739C-0.06572 60.0988 -0.06572 62.8376 1.74404 64.6625C2.71899 65.7166 3.97119 66.2802 5.22339 66.3503C6.33545 66.3503 7.38046 65.9268 8.21526 65.0859C10.9268 62.4172 13.6414 59.6784 16.286 57.0096L18.5101 54.7643C19.1378 54.1337 19.1378 53.5 18.5802 52.7993C18.1628 52.3058 17.7454 51.8854 17.328 51.4649C17.1909 51.3248 17.1909 51.3248 17.1909 51.3248C17.1909 51.3248 17.1909 51.2547 17.2579 51.1846C17.7454 50.7612 18.1628 50.2707 18.6503 49.8503C18.9275 49.57 19.2078 49.2867 19.5551 48.9363C19.5551 48.9363 19.6253 48.8662 19.6953 48.8662C20.1798 49.0064 20.8775 50.0605 20.8775 50.551V64.9458C20.8775 67.7516 23.1046 70 25.8862 70H68.6044C71.386 70 73.6132 67.7516 73.6132 64.9458V16.6401C73.6132 16.2898 73.473 15.9364 73.2659 15.7262ZM15.7285 53.9204C13.7116 55.9586 11.6946 57.9936 9.67465 60.0287L6.61575 63.1179C6.26537 63.4713 5.78088 63.6815 5.08318 63.6815C4.38853 63.6114 3.83102 63.188 3.34355 62.277C2.99622 61.5733 3.13638 60.8025 3.83104 60.0988C5.50064 58.4141 7.10018 56.7293 8.76978 55.1147L11.3443 52.516C11.8317 52.0255 12.3192 51.535 12.7366 51.0445C12.8768 50.9013 12.9469 50.8312 12.9469 50.8312C12.9469 50.8312 13.0139 50.8313 13.154 50.9714C14.0589 51.8854 14.8937 52.7993 15.6584 53.5C15.7985 53.6402 15.7985 53.6402 15.7985 53.7102C15.8686 53.7803 15.8686 53.7803 15.7285 53.9204ZM58.6538 4.70385L69.0919 15.3057H58.6538V4.70385ZM15.3111 33.6306C15.3111 23.8025 23.1716 15.8663 32.912 15.7962C32.912 15.7962 32.912 15.7962 32.9821 15.7962C37.7137 15.7962 42.165 17.6242 45.4371 20.9936C48.7764 24.3631 50.583 28.7866 50.583 33.5605C50.583 38.3344 48.7764 42.8981 45.4371 46.2675C42.0979 49.57 37.7137 51.4649 33.0522 51.4649C33.0522 51.4649 33.0522 51.4649 32.9821 51.4649C23.1046 51.3949 15.3111 43.6019 15.3111 33.6306ZM68.6044 67.4013H25.8862C24.564 67.4013 23.522 66.3503 23.522 65.0159V51.6752C23.589 51.7452 23.7292 51.8153 23.9394 51.8854C29.713 54.6943 36.2512 54.7643 41.8877 51.9554C47.5241 49.1465 51.558 43.8822 52.8803 37.4936C53.9923 32.1561 52.7401 26.3981 49.4009 21.7644C46.1318 17.0605 41.1229 14.0414 35.7668 13.3407C31.5897 12.7771 27.5559 13.4809 23.8693 15.3758C23.589 15.5159 23.522 15.516 23.522 15.516C23.522 15.516 23.522 15.4459 23.522 15.3758C23.522 15.3057 23.522 15.2357 23.522 15.1656V5.05417C23.522 3.7198 24.564 2.66878 25.8862 2.66878H55.9422V16.6401C55.9422 17.3408 56.5668 17.9745 57.2645 17.9745H70.8986V65.0159C70.9687 66.3503 69.9266 67.4013 68.6044 67.4013Z" fill="white"/>
</svg>
