<svg width="71" height="70" viewBox="0 0 71 70" fill="none" xmlns="http://www.w3.org/2000/svg">
<path d="M34.463 70C23.5539 70 12.7072 70 1.79806 70C0.613631 70 0.114985 69.6877 0.114985 68.8773C0.114985 68.0669 0.613634 67.6927 1.86052 67.6927C14.8265 67.6927 27.7927 67.6927 40.6961 67.6927C40.9465 67.6927 41.3208 67.8812 41.3827 67.5069C41.5066 67.0089 41.5066 66.4461 41.3208 65.9481C41.2562 65.7623 40.9465 65.8862 40.7581 65.8862C38.3887 65.8862 36.022 65.8862 33.6526 65.8862C24.4887 65.8862 15.3876 65.8862 6.22396 65.8862C5.97464 65.8862 5.66313 65.8862 5.41354 65.8862C4.72803 65.8242 4.29157 65.3261 4.29157 64.7015C4.29157 64.0796 4.72803 63.6408 5.41354 63.5789C6.22397 63.5169 7.03441 63.5169 7.84485 63.5789C8.3435 63.5789 8.46816 63.455 8.46816 62.9569C8.46816 55.3512 8.46816 47.7481 8.46816 40.1423C8.46816 39.6442 8.3435 39.4558 7.84485 39.5204C7.09688 39.5823 6.34862 39.5204 5.53819 39.5204C4.79021 39.5204 4.29157 39.0196 4.29157 38.3358C4.29157 37.7112 4.79021 37.2131 5.47598 37.1511C5.72531 37.1511 5.91244 37.1511 6.16176 37.1511C17.6318 37.1511 29.1018 37.1511 40.5723 37.1511C40.82 37.1511 41.2562 37.3369 41.3208 36.9627C41.4446 36.4646 41.4446 35.9665 41.3208 35.4038C41.3208 35.28 41.1323 35.28 41.0085 35.28C40.7581 35.28 40.5723 35.28 40.3219 35.28C27.4809 35.28 14.7018 35.28 1.86052 35.28C0.676099 35.28 0.239644 35.0323 0.0525164 34.4077C-0.196808 33.4735 0.48897 33.1612 1.11228 32.725C10.3384 26.74 19.4395 20.8196 28.5406 14.8966C28.9146 14.6489 29.0396 14.3984 29.0396 13.9004C29.0396 9.78652 29.0396 5.67271 29.0396 1.62078C29.0396 0.374244 29.3511 0 30.5966 0C35.085 0 39.5114 0 43.9998 0C44.5626 0 45.1226 0.0619086 45.4349 0.624601C45.7445 1.24652 45.4349 1.68269 45.1226 2.18076C44.5626 2.8673 44.0617 3.61579 43.5017 4.30233C43.1894 4.67387 43.1894 4.92422 43.5017 5.36038C44.0617 6.04692 44.5626 6.79538 45.1226 7.47923C45.4968 7.91538 45.7445 8.41614 45.4349 9.03806C45.1226 9.59806 44.6245 9.72461 43.9998 9.72461C40.0096 9.72461 36.0839 9.72461 32.0936 9.72461C31.4717 9.72461 31.3451 9.91038 31.3451 10.4731C31.4071 11.655 31.3451 12.8396 31.3451 14.0242C31.3451 14.3985 31.4717 14.6488 31.7813 14.8346C38.8895 19.4492 45.9949 24.0612 53.1004 28.735C53.3508 28.9235 53.6632 28.9235 53.9109 28.9235C56.3422 28.9235 58.7735 28.9235 61.1429 28.9235C61.7675 28.9235 62.2656 29.1092 62.7018 29.5454C64.9447 31.8527 67.1902 34.0954 69.495 36.3408C69.9338 36.7769 70.1196 37.2131 70.1196 37.7731C70.1196 47.6215 70.1196 57.47 70.1196 67.2565C70.1196 68.9392 69.1234 69.9381 67.376 69.9381C56.4041 70 45.4349 70 34.463 70ZM55.7821 67.6308C59.522 67.6308 63.3238 67.6308 67.0663 67.6308C67.5644 67.6308 67.7502 67.5069 67.7502 66.9469C67.7502 57.7204 67.7502 48.4319 67.7502 39.2081C67.7502 38.71 67.5644 38.5834 67.0663 38.5834C65.6932 38.5834 64.3846 38.5834 63.0142 38.5834C61.3933 38.5834 60.3324 37.5254 60.3324 35.8427C60.3324 34.5316 60.3324 33.2231 60.3324 31.8527C60.3324 31.29 60.1467 31.1662 59.6459 31.1662C54.5974 31.1662 49.549 31.1662 44.436 31.1662C43.876 31.1662 43.6875 31.29 43.6875 31.8527C43.6875 43.5077 43.6875 55.1654 43.6875 66.8204C43.6875 67.445 43.876 67.5688 44.436 67.5688C48.3024 67.6308 52.0423 67.6308 55.7821 67.6308ZM5.47598 32.8489C5.91244 32.8489 6.16178 32.8489 6.4733 32.8489C17.6318 32.8489 28.8524 32.8489 40.0096 32.8489C41.3827 32.8489 41.3827 32.8489 41.4446 31.4785C41.5066 29.9815 42.5055 28.9235 43.9998 28.9235C44.5626 28.9235 45.1845 28.9235 45.7445 28.9235C46.7435 28.9235 47.8016 28.9235 48.8005 28.9235C48.7386 28.6111 48.5501 28.6111 48.4263 28.4873C42.5055 24.6211 36.582 20.7577 30.6612 16.8296C30.287 16.5819 30.0366 16.6439 29.7251 16.8296C21.933 22.0042 14.0785 27.0523 6.28643 32.165C6.03711 32.3508 5.72531 32.4746 5.47598 32.8489ZM27.294 51.4258C27.294 55.1654 27.294 58.9669 27.294 62.7065C27.294 63.2046 27.3562 63.455 27.9798 63.455C29.4757 63.3931 30.9709 63.455 32.4679 63.455C32.9041 63.455 33.0279 63.3311 33.0279 62.895C33.0279 55.2273 33.0279 47.6215 33.0279 39.9565C33.0279 39.5204 32.8422 39.3939 32.4679 39.3939C30.9709 39.3939 29.4757 39.3939 27.9798 39.3939C27.4809 39.3939 27.294 39.5204 27.294 40.0804C27.3562 43.8819 27.294 47.6835 27.294 51.4258ZM15.0758 51.4258C15.0758 55.2273 15.0758 58.9669 15.0758 62.7684C15.0758 63.3311 15.2629 63.5169 15.824 63.455C17.32 63.3931 18.7537 63.455 20.2499 63.455C20.6861 63.455 20.8732 63.3311 20.8732 62.895C20.8732 55.2273 20.8732 47.6215 20.8732 39.9565C20.8732 39.5204 20.7486 39.3939 20.3121 39.3939C18.8162 39.3939 17.32 39.4558 15.824 39.3939C15.2629 39.3939 15.1382 39.5823 15.1382 40.0804C15.0758 43.8819 15.0758 47.6215 15.0758 51.4258ZM41.8808 7.35537C41.6304 6.73075 41.1942 6.35922 40.8846 5.85845C40.2599 4.98614 40.2599 4.67385 40.8846 3.80155C41.1942 3.36539 41.6304 2.92922 41.8808 2.30729C38.4533 2.30729 35.085 2.30729 31.7194 2.30729C31.2832 2.30729 31.3451 2.55501 31.3451 2.86731C31.3451 4.17578 31.3451 5.48424 31.3451 6.79539C31.3451 7.23154 31.4717 7.35537 31.9079 7.35537C33.7145 7.35537 35.5212 7.35537 37.2686 7.35537C38.8276 7.35537 40.3219 7.35537 41.8808 7.35537ZM23.1174 51.4258C23.1174 55.2273 23.1174 59.0288 23.1174 62.7684C23.1174 62.9569 22.9928 63.3312 23.2421 63.3931C23.7407 63.5789 24.3019 63.5789 24.738 63.3931C25.1123 63.2692 24.9252 62.8304 24.9252 62.5827C24.9252 55.2273 24.9252 47.8719 24.9252 40.5165C24.9252 39.3938 24.9252 39.4558 23.8032 39.3939C23.1796 39.3939 23.055 39.5823 23.055 40.1423C23.1796 43.8819 23.1174 47.6835 23.1174 51.4258ZM35.3973 51.4258C35.3973 55.1035 35.3973 58.7812 35.3973 62.4589C35.3973 63.5789 35.2115 63.455 36.4582 63.5169C37.2067 63.5788 37.2686 63.2692 37.2686 62.6446C37.2686 55.2892 37.2686 47.9339 37.2686 40.5785C37.2686 39.4558 37.2686 39.4558 36.1458 39.4558C35.5212 39.4558 35.3973 39.6442 35.3973 40.2042C35.3973 43.8819 35.3973 47.6835 35.3973 51.4258ZM12.7072 51.4877C12.7072 47.7481 12.7072 43.9438 12.7072 40.2042C12.7072 39.9565 12.8319 39.6442 12.5825 39.5204C12.0836 39.3319 11.5228 39.3938 11.0863 39.5204C10.7123 39.6442 10.8992 40.0804 10.8992 40.3308C10.8992 47.7481 10.8992 55.1654 10.8992 62.5827C10.8992 62.6446 10.8992 62.7065 10.8992 62.7684C10.837 63.3311 11.0863 63.5169 11.585 63.455C12.8941 63.3931 12.7072 63.5788 12.7072 62.3323C12.7072 58.7165 12.7072 55.1034 12.7072 51.4877ZM41.4446 51.4877C41.4446 47.6834 41.4446 43.9439 41.4446 40.1423C41.4446 39.9565 41.5685 39.5823 41.3208 39.5204C40.82 39.3319 40.26 39.3938 39.8238 39.5204C39.4495 39.5823 39.638 40.0184 39.638 40.2661C39.638 47.7481 39.638 55.1654 39.638 62.6446C39.638 62.7685 39.638 62.895 39.638 63.0188C39.638 63.3311 39.7619 63.455 40.0742 63.455C40.26 63.455 40.5103 63.455 40.6961 63.455C41.3208 63.5169 41.5066 63.3312 41.5066 62.7065C41.4446 58.9669 41.4446 55.2273 41.4446 51.4877ZM65.8817 36.2142C64.8208 35.1562 63.8246 34.1573 62.8257 33.1612C62.8257 34.0335 62.8257 34.9677 62.8257 35.9046C62.8257 36.1523 63.0142 36.2142 63.2619 36.2142C64.0723 36.2142 64.9447 36.2142 65.8817 36.2142Z" fill="white"/>
<path d="M55.7202 55.0388C53.1004 55.0388 50.5453 55.0388 47.9282 55.0388C47.3654 55.0388 46.9292 54.8531 46.6815 54.355C46.4931 53.9808 46.555 53.5446 46.8054 53.2323C47.1177 52.7962 47.6158 52.6723 48.114 52.6723C51.1699 52.6723 54.2232 52.6723 57.2792 52.6723C59.3982 52.6723 61.5172 52.6723 63.6361 52.6723C64.5085 52.6723 65.0093 53.1085 65.0093 53.8569C65.0093 54.6027 64.5085 55.1035 63.6361 55.1035C61.019 55.0388 58.3992 55.0388 55.7202 55.0388Z" fill="white"/>
<path d="M55.7202 48.4319C53.227 48.4319 50.7337 48.4319 48.1759 48.4319C47.9901 48.4319 47.7397 48.4319 47.5539 48.4319C46.9939 48.37 46.4931 47.8719 46.4931 47.3119C46.4931 46.6873 46.8054 46.3131 47.43 46.1273C47.6158 46.0654 47.8662 46.0654 48.114 46.0654C53.227 46.0654 58.2754 46.0654 63.3884 46.0654C63.5123 46.0654 63.6361 46.0654 63.76 46.0654C64.5085 46.1273 64.9447 46.6254 64.9447 47.3119C64.9447 47.9958 64.4466 48.4319 63.698 48.4319C62.0772 48.4319 60.4563 48.4319 58.8354 48.4319C57.8392 48.4319 56.7784 48.4319 55.7202 48.4319Z" fill="white"/>
<path d="M55.8441 61.5838C53.2889 61.5838 50.7957 61.5838 48.2405 61.5838C47.9901 61.5838 47.6778 61.5838 47.43 61.5219C46.8673 61.3981 46.555 60.9619 46.555 60.4019C46.555 59.8392 46.9293 59.465 47.492 59.2792C47.6778 59.2173 47.8662 59.2173 48.114 59.2173C53.227 59.2173 58.3992 59.2173 63.5123 59.2173C64.4465 59.2173 64.9447 59.5916 65.0093 60.2135C65.1331 61.0239 64.5704 61.5838 63.5742 61.5838C61.2048 61.5838 58.8354 61.5838 56.4687 61.5838C56.2183 61.5838 56.0325 61.5838 55.8441 61.5838Z" fill="white"/>
<path d="M55.7202 41.8869C53.165 41.8869 50.6691 41.8869 48.1139 41.8869C47.8016 41.8869 47.492 41.8869 47.1796 41.7631C46.6815 41.5127 46.4311 41.0766 46.555 40.5785C46.6196 40.0804 46.9939 39.7062 47.5539 39.6442C47.7397 39.6442 47.9282 39.6442 48.1139 39.6442C53.227 39.6442 58.3373 39.6442 63.5123 39.6442C64.4465 39.6442 64.9447 39.9565 65.0093 40.6404C65.0712 41.4508 64.5704 41.9488 63.6361 41.9488C60.9571 41.8869 58.3373 41.8869 55.7202 41.8869Z" fill="white"/>
<path d="M30.2251 31.1042C27.1694 31.1042 24.7381 28.6731 24.7381 25.62C24.7381 22.6262 27.1694 20.195 30.2251 20.195C33.2164 20.195 35.6477 22.6262 35.6477 25.6819C35.6477 28.6731 33.2164 31.1042 30.2251 31.1042ZM30.2251 22.3785C28.416 22.3785 26.92 23.8108 26.92 25.6819C26.92 27.4885 28.416 28.9854 30.2251 28.9854C32.0317 28.9854 33.5288 27.4885 33.5288 25.6819C33.4641 23.8727 32.0317 22.3785 30.2251 22.3785Z" fill="white"/>
</svg>
