<svg width="70" height="70" viewBox="0 0 70 70" fill="none" xmlns="http://www.w3.org/2000/svg">
<path d="M54.9299 19.3015C54.1369 18.405 53.0796 17.9593 51.6906 18.0862C51.4911 18.0862 51.4263 18.0863 51.359 18.0215C51.2942 17.9593 51.2942 17.8945 51.2942 17.7027C51.2942 15.4665 51.2942 13.2303 51.2942 11.0589V10.1001C51.2942 9.14137 50.7655 8.69309 49.773 8.6309C48.4488 8.6309 47.0625 8.6309 45.6735 8.6309C44.681 8.6309 44.1523 9.14137 44.1523 10.1001C44.1523 10.7376 44.1523 11.4424 44.1523 12.0798V15.0208C44.1523 17.384 44.1523 19.685 44.1523 22.0482C44.1523 22.1752 44.1523 22.3021 44.0849 22.3021C44.0202 22.3669 43.9528 22.3669 43.8206 22.3669C43.3594 22.3669 42.8955 22.3669 42.2995 22.3669C42.0352 22.3669 41.9703 22.3021 41.903 22.113C41.2422 20.5142 39.721 19.4933 38.0029 19.4933C33.9681 19.4933 29.9334 19.4933 25.9012 19.4933C24.1805 19.4933 22.5946 20.5142 21.9985 22.113C21.8664 22.3669 21.8016 22.4939 21.5347 22.4939C21.4026 22.4939 21.2056 22.4939 21.0734 22.5587C17.6995 23.4526 15.5175 25.4349 14.5924 28.5651C13.8642 30.8661 14.1959 33.1645 15.5849 35.3385C16.9065 37.383 18.8241 38.6605 21.2704 39.1061C21.6694 39.1709 21.6695 39.2979 21.6695 39.6192C21.6695 42.4307 21.6695 45.3043 21.6695 48.1158V53.2904C21.6695 55.7184 21.6695 58.0842 21.6695 60.5122C21.6695 61.5331 22.1981 62.0436 23.2554 62.0436H23.8514C24.5122 62.0436 25.173 62.0436 25.8338 62.0436C25.966 62.0436 26.0981 62.0436 26.0981 62.1083C26.1655 62.1731 26.1655 62.2353 26.1655 62.3649C26.1655 63.4506 26.1655 64.6633 26.1655 66.0703C26.1655 66.389 26.0981 66.4538 25.8338 66.516C24.8413 66.8373 23.784 67.156 22.6594 67.5395C22.2629 67.6665 21.9986 67.923 21.8016 68.2417C21.6695 68.5631 21.6695 68.8818 21.7343 69.2005C21.9986 69.9027 22.7268 70.1593 23.4549 69.9027C24.0484 69.711 24.7091 69.5192 25.3052 69.2653C26.0333 69.0088 26.8263 68.7548 27.5545 68.563C28.4123 68.3065 28.6765 67.923 28.6765 67.0291V66.389C28.6765 64.9846 28.6765 63.6424 28.6765 62.2353C28.6765 62.1084 28.6765 62.0436 28.7439 62.0436C28.7439 62.0436 28.8114 62.0436 28.9435 61.9814C30.9259 61.9814 32.9109 61.9814 34.8933 61.9814C35.0255 61.9814 35.0928 61.9814 35.0928 62.0436C35.0928 62.0436 35.1576 62.1084 35.1576 62.2353C35.1576 63.2589 35.1576 64.6633 35.1576 66.0055C35.1576 66.262 35.0929 66.389 34.8285 66.4538C33.836 66.7725 32.6466 67.156 31.4545 67.5395C31.1254 67.6665 30.8611 67.8582 30.7937 68.1796C30.6616 68.4983 30.6616 68.817 30.7937 69.1357C30.9933 69.6488 31.4545 69.9027 31.9831 69.9027C32.1153 69.9027 32.2475 69.9027 32.447 69.8405C33.836 69.3923 35.225 68.944 36.5466 68.4983C37.5391 68.1796 37.736 67.8583 37.736 66.8373C37.736 66.4538 37.736 66.0703 37.736 65.6868C37.736 64.6011 37.736 63.4506 37.736 62.3649C37.736 62.1731 37.736 62.0436 37.8034 61.9814C37.8708 61.9166 38.003 61.9166 38.1999 61.9166C38.7286 61.9166 39.2572 61.9166 39.7884 61.9166C39.9854 61.9166 40.2496 61.9166 40.4492 61.9166C41.8382 61.9166 42.2347 61.5331 42.2347 60.1909V29.2026C42.2347 27.7981 42.2347 26.4559 42.2347 25.0514C42.2347 24.9866 42.2347 24.8597 42.2995 24.7949C42.2995 24.7949 42.4316 24.7301 42.499 24.7301C42.9603 24.7301 43.4242 24.7301 43.888 24.7301C44.0202 24.7301 44.0849 24.7301 44.0849 24.7949C44.0849 24.7949 44.1523 24.8597 44.1523 25.0514C44.1523 25.8806 44.1523 26.7772 44.1523 27.6063V27.6711C44.1523 28.6299 44.681 29.0756 45.6061 29.0756C46.9951 29.0756 48.3841 29.0756 49.7057 29.0756C50.6982 29.0756 51.162 28.5651 51.162 27.6063V27.2877C51.162 26.5207 51.162 25.7536 51.162 24.9219C51.162 24.7949 51.162 24.7301 51.2268 24.7301C51.2268 24.7301 51.2942 24.6679 51.4263 24.6679C51.8228 24.6679 52.1519 24.6679 52.4836 24.6679C53.8726 24.4762 54.865 23.8361 55.3937 22.5587C56.0545 21.5377 55.8576 20.3873 54.9299 19.3015ZM21.8016 36.6782C21.8016 36.6782 21.7343 36.6782 21.5347 36.616C18.2955 35.722 16.51 32.9728 17.0386 29.7778C17.4351 27.5416 19.4202 25.5619 21.6695 25.0514C21.7343 25.0514 21.8016 25.0514 21.8016 25.0514V25.2432C21.8016 26.7772 21.8016 28.2464 21.8016 29.7778V32.3353C21.8016 33.6776 21.8016 35.0172 21.8016 36.3595C21.8016 36.616 21.8016 36.6782 21.8016 36.6782ZM30.5968 21.9834C30.9259 21.9834 31.2576 21.9834 31.6541 21.9834H32.5792C32.9109 21.9834 33.24 21.9834 33.5043 21.9834C33.5717 21.9834 33.5717 21.9834 33.5717 21.9834C33.5717 21.9834 33.5717 22.0482 33.5043 22.0482C33.1752 22.6857 32.7787 23.2609 32.447 23.9009L32.0505 24.6031C32.0505 24.6031 32.0505 24.6679 31.9831 24.6679C31.9831 24.6679 31.9831 24.6679 31.9831 24.6031C31.5219 23.7739 30.9933 22.8774 30.5294 22.0482C30.5294 22.0482 30.5294 21.9834 30.4621 21.9834C30.5294 21.9834 30.5968 21.9834 30.5968 21.9834ZM39.7884 59.1051C39.7884 59.2969 39.7884 59.4886 39.7884 59.5534C39.7884 59.5534 39.5215 59.5534 39.3893 59.5534C38.8607 59.5534 38.332 59.5534 37.8034 59.5534C36.4818 59.5534 35.1577 59.5534 33.836 59.5534C33.6365 59.5534 33.5717 59.5534 33.5043 59.4886C33.4395 59.4264 33.4395 59.3616 33.4395 59.1699C33.4395 50.1603 33.4395 41.0885 33.4395 32.0788C33.4395 31.8223 33.4395 31.5683 33.3721 31.3766C33.24 30.8013 32.7114 30.4178 32.1827 30.4178C31.5867 30.4178 31.058 30.8013 30.9259 31.3766C30.8611 31.5683 30.8611 31.8223 30.8611 32.014V32.0788C30.8611 41.0885 30.8611 50.0981 30.8611 59.1051C30.8611 59.2969 30.8611 59.4886 30.8611 59.4886C30.7937 59.4886 30.5967 59.4886 30.3972 59.4886H28.9435C27.5545 59.4886 26.2303 59.4886 24.8413 59.4886C24.7092 59.4886 24.577 59.4887 24.577 59.4265C24.5122 59.3617 24.5122 59.2969 24.5122 59.1699C24.5122 54.3787 24.5122 49.585 24.5122 44.7939V41.3424C24.5122 39.811 24.5122 38.277 24.5122 36.6782C24.5122 32.4623 24.5122 28.1816 24.5122 23.9009C24.5122 23.3257 24.7091 22.8152 25.1056 22.4317C25.5047 22.0482 26.0334 21.8565 26.6268 21.8565C27.4871 21.8565 27.951 22.113 28.2801 22.8152C28.8113 23.9009 29.4721 24.9866 30.0655 26.0102C30.3299 26.5206 30.6616 27.0311 30.9259 27.5416C31.1254 27.9251 31.5219 28.4382 32.1827 28.4382C32.8435 28.4382 33.1752 27.9899 33.4395 27.5416C33.836 26.8394 34.2325 26.1371 34.629 25.4349C35.225 24.4114 35.8184 23.3904 36.4145 22.3021C36.614 21.9834 36.7461 21.9212 37.0104 21.9212C37.2074 21.9212 37.4069 21.9212 37.6039 21.9212C38.1351 21.9212 38.6638 21.9212 39.125 22.2399C39.5889 22.6234 39.7884 23.007 39.8532 23.5174C39.8532 23.6444 39.8532 23.774 39.8532 23.8362V23.9657L39.7884 59.1051ZM46.7981 15.4665V13.6786C46.7981 12.9116 46.7981 12.1446 46.7981 11.3776C46.7981 11.2506 46.7981 11.1859 46.8629 11.1859C46.8629 11.1859 46.9302 11.121 47.0624 11.121H47.1272C47.6559 11.121 48.1845 11.121 48.6483 11.121C48.7805 11.121 48.7806 11.121 48.7806 11.121C48.7806 11.121 48.7806 11.1211 48.7806 11.2506C48.7806 13.4221 48.7806 15.6583 48.7806 17.8297C48.7806 17.8945 48.7806 17.9593 48.7806 17.9593C48.7806 17.9593 48.7157 17.9593 48.6483 17.9593H48.5162C48.0523 17.9593 47.6559 17.9593 47.1946 17.9593C47.0625 17.9593 46.995 17.9593 46.9303 17.8945C46.9303 17.8945 46.8629 17.8297 46.8629 17.6379C46.8629 17.0005 46.8629 16.2335 46.7981 15.4665ZM48.7157 26.7124C48.7157 26.7124 48.6483 26.7772 48.5162 26.7772C48.3166 26.7772 48.0523 26.7772 47.8554 26.7772C47.591 26.7772 47.3915 26.7772 47.0624 26.7772C46.9302 26.7772 46.8629 26.7772 46.8629 26.7772C46.8629 26.7772 46.7981 26.7124 46.7981 26.5854C46.7981 24.7301 46.7981 22.8152 46.7981 20.8329C46.7981 20.7059 46.7981 20.6412 46.8629 20.6412C46.8629 20.6412 46.9302 20.579 47.0624 20.6412C47.6558 20.6412 48.1197 20.6412 48.5809 20.6412C48.7157 20.6412 48.7806 20.6412 48.7806 20.6412C48.7806 20.6412 48.8479 20.7707 48.8479 20.8329C48.8479 21.5377 48.8479 22.1752 48.8479 22.8774V24.4762C48.8479 25.1784 48.8479 25.8806 48.8479 26.5206C48.7806 26.6476 48.7157 26.7124 48.7157 26.7124ZM53.0796 21.9212C52.9475 22.1752 52.6832 22.3669 52.2867 22.3669C51.8228 22.4317 51.4911 22.4317 51.4263 22.3669C51.359 22.3022 51.359 21.9834 51.359 21.5377V21.2812C51.4263 21.1542 51.359 21.0247 51.359 20.8977C51.2942 20.6412 51.359 20.579 51.4263 20.5142C51.4911 20.4494 51.6232 20.4494 51.8228 20.4494C52.2866 20.4494 52.8801 20.6412 53.0123 20.8329C53.2766 21.2164 53.2766 21.5377 53.0796 21.9212Z" fill="white"/>
<path d="M18.7529 2.49276H19.2168C19.2816 2.49276 19.4137 2.49276 19.5459 2.49276C19.5459 4.40767 19.5459 6.38993 19.5459 8.30484C19.5459 8.49659 19.5459 8.7531 19.6133 8.94485C19.7454 9.45532 20.2094 9.83883 20.738 9.83883C21.2666 9.83883 21.7305 9.45532 21.8626 8.94485C21.9274 8.7531 21.9274 8.56135 21.9274 8.36961V8.30484C21.9274 6.38993 21.9274 4.40767 21.9274 2.49276C22.7204 2.49276 23.5159 2.49276 23.845 2.49276C23.9772 2.49276 24.1094 2.49273 24.1094 2.55492C24.1767 2.6197 24.1768 2.6845 24.1768 2.87625C24.1768 4.53721 24.1768 6.13339 24.1768 7.79435V10.0954C24.1768 10.9245 24.3089 11.6915 24.5732 12.3964C25.6979 15.397 27.8798 17.1227 30.9869 17.6332C31.4507 17.698 31.912 17.7628 32.3759 17.7628C34.4931 17.7628 36.3432 16.931 37.9965 15.3348C39.5177 13.8008 40.3107 11.8833 40.2459 9.5201C40.2459 8.24264 40.2459 6.9652 40.2459 5.68773C40.2459 4.72898 40.2459 3.8324 40.2459 2.87625C40.1785 2.6845 40.1785 2.55492 40.1785 2.55492C40.2459 2.49273 40.3106 2.49276 40.4428 2.49276C41.171 2.49276 43.6173 2.49276 44.2781 2.49276H44.8068C45.7345 2.49276 46.3279 1.97968 46.3279 1.27746C46.3279 0.510459 45.7345 0.0647803 44.8068 0H28.9371C26.3587 0 21.3987 0 18.8203 0C18.3565 0 17.8926 0.126956 17.6283 0.383486C17.4314 0.640016 17.2992 0.958739 17.2992 1.27746C17.2992 1.97968 17.8926 2.49276 18.7529 2.49276ZM35.483 14.0573C33.3684 15.7183 29.9944 15.4618 28.1442 13.4821C27.0869 12.3316 26.623 10.9246 26.6878 9.13662C26.6878 9.00965 26.6878 9.00966 26.6878 9.00966C26.6878 9.00966 26.7551 9.00966 26.8199 9.00966H26.9521C28.2763 9.00966 29.5979 9.00966 30.9221 9.00966H32.7076C34.2261 9.00966 35.7473 9.00966 37.3358 9.00966C37.5328 9.00966 37.5327 9.00963 37.5327 9.20138C37.6649 11.2458 36.9393 12.8421 35.483 14.0573ZM26.6878 2.74668C26.6878 2.61971 26.6878 2.55492 26.7552 2.55492C26.7552 2.55492 26.8199 2.49276 26.9521 2.49276C30.4582 2.49276 33.897 2.49276 37.4006 2.49276C37.5327 2.49276 37.6001 2.49273 37.6001 2.55492C37.6001 2.55492 37.6649 2.61971 37.6649 2.74668C37.6649 3.77021 37.6649 5.04767 37.6649 6.32513C37.6649 6.4521 37.6649 6.45212 37.6001 6.5169C37.5327 6.58168 37.4006 6.58166 37.3358 6.58166C36.0116 6.58166 34.7573 6.58166 33.4331 6.58166H30.79C29.5331 6.58166 28.2763 6.58166 27.0195 6.58166C26.8873 6.58166 26.8199 6.58168 26.7552 6.5169C26.7552 6.5169 26.6878 6.45212 26.6878 6.26037C26.6878 4.9829 26.6878 3.77021 26.6878 2.74668Z" fill="white"/>
</svg>
