<svg width="325" height="328" viewBox="0 0 325 328" fill="none" xmlns="http://www.w3.org/2000/svg">
<path d="M162.5 327.562C252.246 327.562 325 254.333 325 164C325 73.6672 252.246 0.437988 162.5 0.437988C72.7537 0.437988 0 73.6672 0 164C0 254.333 72.7537 327.562 162.5 327.562Z" fill="#034DA1" fill-opacity="0.2"/>
<path d="M162.5 287.203C229.956 287.203 284.64 232.043 284.64 164C284.64 95.9571 229.956 40.7974 162.5 40.7974C95.0436 40.7974 40.3594 95.9571 40.3594 164C40.3594 232.043 95.0436 287.203 162.5 287.203Z" fill="white" fill-opacity="0.2"/>
<path d="M162.501 259.588C214.706 259.588 257.027 216.792 257.027 164C257.027 111.208 214.706 68.4116 162.501 68.4116C110.295 68.4116 67.9746 111.208 67.9746 164C67.9746 216.792 110.295 259.588 162.501 259.588Z" fill="white" fill-opacity="0.2"/>
<path d="M163.806 235.05C202.911 235.05 234.612 203.349 234.612 164.244C234.612 125.139 202.911 93.438 163.806 93.438C124.701 93.438 93 125.139 93 164.244C93 203.349 124.701 235.05 163.806 235.05Z" fill="#002C54"/>
<path d="M152 141.438L187 164.938L152 188.438V141.438Z" stroke="white" stroke-width="2" stroke-linecap="round" stroke-linejoin="round"/>
</svg>
